PathFileType	4	(X/Y/Z)	D:\Long Term Storage\D'Arcy Smith\Coord12.trc
DataRate	CameraRate	NumFrames	NumMarkers	Units	OrigDataRate	OrigDataStartFrame	OrigNumFrames
120.00	120.00	      146	4	mm	120.00	4211	      4812
Frame#	Time	M1			M2			M3			M4			
		X1	Y1	Z1	X2	Y2	Z2	X3	Y3	Z3	X4	Y4	Z4	

4211	35.083	1035.40320	276.68774	548.56824	1602.40588	328.00076	625.54401							
4212	35.092	1035.18164	277.01883	549.17163	1603.38892	328.09747	626.04498							
4213	35.100	1034.91760	277.31500	549.36694	1604.36023	328.35504	626.31860							
4214	35.108	1034.53113	277.58090	549.09302	1605.51575	328.23016	626.09351							
4215	35.117	1034.22937	277.59698	548.50385	1606.56140	327.89767	625.57843							
4216	35.125	1033.73352	277.63327	547.44653	1607.50146	326.96460	624.52563							
4217	35.133	1033.22693	277.51300	545.96582	1609.08813	326.59064	623.37933							
4218	35.142	1032.67407	277.39539	544.04156	1610.48071	325.50043	621.74976							
4219	35.150	1032.01819	277.17691	541.91711	1611.87219	324.03998	619.53156							
4220	35.158	1031.27942	276.91727	539.21185	1613.68665	323.03494	617.33429							
4221	35.167	1030.74377	276.45721	536.01135	1614.91943	321.18378	614.34357							
4222	35.175	1030.10278	276.08963	532.67316	1616.74768	320.07620	611.44904							
4223	35.183	1029.25305	275.65091	528.80237	1618.06616	318.03064	607.62439							
4224	35.192	1028.45667	275.16446	524.69507	1619.87109	316.74411	603.94214							
4225	35.200	1027.96643	274.63626	520.24786	1621.05981	314.60251	599.41895							
4226	35.208	1027.03870	274.19055	515.23639	1622.20398	313.03079	594.99835							
4227	35.217	1026.18738	273.92798	509.90692	1624.11829	311.42130	590.14227							
4228	35.225	1025.45715	273.59613	504.26758	1624.98669	309.13037	584.68408							
4229	35.233	1024.89343	273.37161	498.19769	1626.51965	307.62134	578.72406							
4230	35.242	1023.71631	273.30637	491.85059	1627.83411	305.88544	572.44781							
4231	35.250	1023.43701	272.73651	485.59137	1629.17578	304.11908	565.59241							
4232	35.258	1022.78241	272.79819	478.59247	1630.39307	302.71609	558.56201							
4233	35.267	1022.14392	273.09760	471.16339	1631.72974	301.05734	550.69623							
4234	35.275	1021.72876	273.45670	463.64328	1632.22375	299.84079	543.01471							
4235	35.283	1021.10864	274.18274	455.56995	1632.97827	298.64877	534.77271							
4236	35.292	1020.63214	274.91605	447.24939	1633.94629	297.63123	526.05157							
4237	35.300	1020.16534	276.01468	438.61661	1634.50964	296.58704	517.08191							
4238	35.308	1019.75964	277.19601	430.01230	1635.41992	296.04285	507.77621							
4239	35.317	1019.58569	278.67941	421.01877	1636.02795	295.51501	498.15869							
4240	35.325	1019.21515	280.35602	411.85519	1637.09497	294.68225	488.05261							
4241	35.333	1019.28094	282.28293	402.47144	1637.50378	295.18781	477.82895							
4242	35.342	1019.06268	284.41129	393.03326	1637.53210	294.96588	467.38135							
4243	35.350	1019.23956	286.84079	383.38129	1638.19934	295.80658	456.51627							
4244	35.358	1019.30225	289.60083	373.62259	1638.23303	296.58652	445.90845							
4245	35.367	1019.33374	292.50500	363.63168	1637.51917	297.59232	435.65668							
4246	35.375	1019.64130	295.85950	353.61005	1638.22803	299.26996	424.05457							
4247	35.383	1020.08447	299.36188	343.66626	1638.30420	301.03726	413.19922							
4248	35.392	1020.40240	303.12790	333.68567	1638.12170	303.07578	402.19473							
4249	35.400	1020.86554	307.52597	322.75256	1638.12512	305.60046	391.21127							
4250	35.408	1021.50635	311.66418	312.77628	1637.93616	308.24765	380.24048							
4251	35.417	1021.95526	316.06436	303.06879	1637.60217	311.12659	369.25967							
4252	35.425	1022.64899	320.48227	293.32315	1637.87573	314.20883	358.68695							
4253	35.433	1023.32214	325.17819	283.94241	1637.56140	317.84039	348.21835							
4254	35.442	1023.78320	329.98947	274.55957	1637.16199	321.73245	337.74454							
4255	35.450	1024.54700	334.93781	265.52420	1636.38562	325.33627	327.44586							
4256	35.458	1025.00928	339.95212	256.73120	1636.24878	330.00479	317.54623							
4257	35.467	1025.82629	345.10532	248.18806	1635.81702	334.30875	308.26486							
4258	35.475	1026.35400	350.41397	239.92693	1635.25696	338.96280	298.75519							
4259	35.483	1027.07983	355.57913	231.99835	1634.76660	343.70959	289.64127							
4260	35.492	1027.63977	360.73065	224.51129	1634.36267	348.39175	280.90408							
4261	35.500	1027.75061	365.55405	217.33542	1633.72437	353.17606	272.49310							
4262	35.508	1027.82349	371.06219	210.39601	1633.35779	358.03598	264.43585							
4263	35.517	1028.65588	376.27133	203.84732	1633.16406	363.03262	256.80176							
4264	35.525	1029.28369	380.74869	197.96359	1632.32532	367.65591	249.69760							
4265	35.533	1029.12842	385.67072	192.27705	1631.72974	372.32574	242.78668							
4266	35.542	1029.03772	389.76736	187.19365	1630.97107	377.02423	236.64090							
4267	35.550	1028.96643	394.11923	182.40883	1630.20068	381.45355	230.65558							
4268	35.558	1029.08215	398.09317	178.12790	1629.44666	385.61279	225.18114							
4269	35.567	1028.99438	401.77066	174.39026	1628.90637	389.68851	220.39914							
4270	35.575	1028.68811	405.17639	170.95656	1628.49133	393.46027	216.14987							
4271	35.583	1028.39819	408.27161	168.06172	1627.62390	396.92130	211.40948							
4272	35.592	1028.01624	411.02820	165.54700	1627.03674	400.20905	207.93352							
4273	35.600	1027.47437	413.54852	163.49721	1626.63245	403.27963	204.94820							
4274	35.608	1026.79700	415.64774	161.95894	1626.05859	405.75470	202.25621							
4275	35.617	1026.08325	417.26508	160.78462	1625.74731	408.15195	200.21748							
4276	35.625	1025.45715	418.55307	159.99005	1623.79858	410.17654	198.07846							
4277	35.633	1024.58154	419.44055	159.60860	1623.39734	411.62891	196.92148							
4278	35.642	1023.66278	419.90137	159.60536	1624.49573	412.52884	196.45715							
4279	35.650	1022.61041	419.94077	160.00510	1624.75452	413.75342	195.81648							
4280	35.658	1021.50690	419.53177	160.81619	1624.41699	413.84680	195.86584							
4281	35.667	1020.38409	418.82489	161.98369	1624.31067	413.52829	196.28253							
4282	35.675	1019.18719	417.65689	163.37128	1624.01355	412.61551	197.03011							
4283	35.683	1018.05157	416.06015	165.28612	1624.00391	411.39197	198.26367							
4284	35.692	1016.78870	414.25684	167.41522	1624.02441	409.92853	199.70369							
4285	35.700	1015.59375	411.99841	169.90276	1624.07495	407.85358	201.69907							
4286	35.708	1014.30890	409.45535	172.76172	1624.01196	405.53793	203.91498							
4287	35.717	1013.21063	406.65482	175.72433	1623.98169	402.64249	206.63100							
4288	35.725	1012.01678	403.53079	179.17729	1623.97217	399.51627	209.63310							
4289	35.733	1011.07861	400.13010	182.76460	1624.01123	396.12567	212.94424							
4290	35.742	1009.83850	396.48920	186.79085	1624.22852	392.29300	216.68457							
4291	35.750	1008.97546	392.57385	190.95406	1624.27332	388.20822	220.80797							
4292	35.758	1007.98792	388.44937	195.54060	1624.31616	383.86298	225.25273							
4293	35.767	1007.04340	384.14252	200.34903	1624.56885	379.19473	230.12637							
4294	35.775	1006.48456	380.00964	205.35199	1624.78186	374.44385	235.45297							
4295	35.783	1005.57196	375.56732	210.72412	1624.88745	369.34714	241.16934							
4296	35.792	1004.53326	370.50217	216.41675	1625.15430	364.15198	246.97830							
4297	35.800	1003.59076	365.93823	222.27765	1625.16272	358.44479	253.65077							
4298	35.808	1002.93555	361.13712	228.30365	1625.29468	353.11285	260.50519							
4299	35.817	1002.77521	356.65140	234.68721	1625.54053	347.72076	267.86823							
4300	35.825	1002.05249	351.47107	241.41608	1625.54382	342.35812	275.53110							
4301	35.833	1002.37280	346.57730	248.18452	1625.39600	337.02423	283.57315							
4302	35.842	1002.00800	341.68326	255.20549	1625.42920	331.68723	291.98749							
4303	35.850	1002.04785	336.61990	262.39920	1625.76050	326.66113	301.50717							
4304	35.858	1001.85406	331.85699	269.97177	1625.03186	321.35928	310.33441							
4305	35.867	1002.26453	326.66501	277.69141	1624.61279	316.13379	319.42175							
4306	35.875	1002.31677	321.96945	285.62781	1624.77588	311.80444	328.83459							
4307	35.883	1002.52838	317.32379	293.86859	1624.48328	307.31009	338.95132							
4308	35.892	1002.63849	312.95966	302.32590	1623.79395	303.25198	349.22977							
4309	35.900	1002.65961	308.86081	311.17029	1623.33435	299.50293	359.83072							
4310	35.908	1003.16138	304.99316	320.12814	1622.83252	295.93338	370.64758							
4311	35.917	1003.37268	301.65424	329.31342	1622.27051	292.62177	381.75458							
4312	35.925	1003.99286	297.74591	339.26376	1621.67554	289.64825	392.89230							
4313	35.933	1004.41425	294.67532	348.45950	1621.09851	287.06662	404.16678							
4314	35.942	1005.15527	291.73309	357.71988	1620.36316	284.79617	415.49042							
4315	35.950	1005.84290	289.08481	367.05930	1619.48779	283.07788	426.93698							
4316	35.958	1006.66205	286.56903	376.04193	1618.72437	281.79785	438.28732							
4317	35.967	1007.40680	284.33029	385.36407	1617.89380	280.97040	449.63623							
4318	35.975	1008.39850	282.36426	394.39038	1616.89319	279.89819	460.68427							
4319	35.983	1009.43762	280.73056	403.16376	1615.63123	279.77072	472.31274							
4320	35.992	1010.20355	279.58752	411.89514	1614.78552	280.92999	483.49207							
4321	36.000	1011.21552	278.48038	420.45740	1613.68970	282.54083	493.90820							
4322	36.008	1012.03772	277.55038	429.01239	1612.78491	284.01819	504.12204							
4323	36.017	1012.99060	277.09784	436.93311	1611.68066	285.57315	514.18890							
4324	36.025	1014.05975	276.85309	444.90741	1610.73279	287.92395	524.15765							
4325	36.033	1014.86041	276.79669	452.40485	1609.93616	289.83090	533.08527							
4326	36.042	1015.95447	276.59552	459.69095	1609.12549	292.27484	541.91882							
4327	36.050	1016.97668	276.69678	466.53555	1608.11047	295.06610	550.62738							
4328	36.058	1017.99384	276.84424	473.16180	1607.09033	297.76355	558.64587							
4329	36.067	1019.04346	277.07968	479.32846	1606.48108	300.81439	566.03271							
4330	36.075	1019.86713	277.14468	485.19858	1605.88318	303.94186	573.02582							
4331	36.083	1020.85352	277.51263	490.78079	1605.25439	306.95502	579.62274							
4332	36.092	1021.76270	277.81799	495.94656	1604.81836	309.65039	585.30194							
4333	36.100	1022.79041	278.26813	500.68240	1603.85962	312.00156	591.06348							
4334	36.108	1023.51270	278.75217	505.02621	1603.83984	315.42834	595.65631							
4335	36.117	1024.32544	279.19757	508.98471	1603.62708	318.30450	600.29437							
4336	36.125	1025.04578	279.67767	512.61072	1603.45520	320.83258	604.53082							
4337	36.133	1025.70886	280.11923	515.58356	1602.88708	322.87253	608.39740							
4338	36.142	1026.30078	280.62930	518.36346	1602.94055	325.26740	612.01837							
4339	36.150	1027.06421	280.91669	520.60138	1602.87231	327.21332	615.04956							
4340	36.158	1027.49219	281.14435	522.60156	1602.34009	328.45013	617.33185							
4341	36.167	1027.88745	281.27676	524.17651	1603.00964	329.85760	619.71185							
4342	36.175	1027.90308	281.85342	524.62653	1602.75403	330.48270	621.15967							
4343	36.183	1028.69629	281.32513	526.13031	1602.79968	331.19345	622.40833							
4344	36.192	1029.16614	281.19757	526.67322	1602.95935	331.70541	623.22595							
4345	36.200	1029.47192	281.02576	526.77612	1603.42847	332.23285	623.69696							
4346	36.208	1029.51733	280.78845	526.43365	1603.82568	332.19174	623.66931							
4347	36.217	1029.44482	280.72858	525.65967	1603.98145	331.43042	622.97577							
4348	36.225	1029.10425	280.94910	524.00403	1604.50085	330.80109	622.05402							
4349	36.233	1029.23206	280.62567	522.64752	1605.12354	330.38071	621.01453							
4350	36.242	1029.10486	280.24197	520.82068	1605.79517	329.20676	619.23047							
4351	36.250	1028.93042	279.92194	518.83746	1606.09058	327.56509	616.82385							
4352	36.258	1028.86206	279.40903	516.30908	1606.79053	326.61963	614.43738							
4353	36.267	1028.70410	278.87787	513.55438	1607.13464	324.46185	611.22162							
4354	36.275	1028.59937	278.38452	510.64600	1607.75806	322.76260	607.70416							
4355	36.283	1028.35425	277.91925	507.26920	1608.27832	320.95230	603.85870							
4356	36.292	1028.17773	277.42093	503.62741	1608.70508	319.05215	599.53357							
